<?xml version="1.0" encoding="utf-8"?>
<!-- Generator: Adobe Illustrator 25.4.1, SVG Export Plug-In . SVG Version: 6.00 Build 0)  -->
<svg version="1.1" id="Layer_1" xmlns="http://www.w3.org/2000/svg" xmlns:xlink="http://www.w3.org/1999/xlink" x="0px" y="0px"
	 viewBox="0 0 512 512" style="enable-background:new 0 0 512 512;" xml:space="preserve">
<style type="text/css">
	.st0{fill:#00AEEF;stroke:#00AEEF;stroke-miterlimit:10;}
</style>
<polygon class="st0" points="489.7,490.83 431.74,490.83 403.51,433.3 354.19,332.82 383.26,273.93 461.47,433.3 "/>
<line class="st0" x1="255.33" y1="13.29" x2="255.22" y2="13.05"/>
<polygon class="st0" points="323.78,433.3 352.01,490.83 162.88,490.83 134.65,433.3 264.94,433.3 255.29,413.66 185.79,272.03 
	156.82,213.01 186.32,153.21 226.28,72.2 255.33,13.29 284.3,72.32 353.82,213.95 324.76,272.85 255.25,131.22 215.29,212.23 
	284.79,353.86 314.23,413.84 "/>
<polygon class="st0" points="156.09,332.22 120.47,404.42 106.23,433.3 77.85,490.83 19.75,490.83 48.13,433.3 91.5,345.4 
	127.12,273.2 "/>
</svg>
