<?xml version="1.0" encoding="utf-8"?>
<!-- Generator: Adobe Illustrator 25.4.1, SVG Export Plug-In . SVG Version: 6.00 Build 0)  -->
<svg version="1.1" id="Layer_1" xmlns="http://www.w3.org/2000/svg" xmlns:xlink="http://www.w3.org/1999/xlink" x="0px" y="0px"
	 viewBox="0 0 512 512" style="enable-background:new 0 0 512 512;" xml:space="preserve">
<style type="text/css">
	.st0{fill:none;stroke:#000000;stroke-miterlimit:10;}
	.st1{fill:#ED1C24;stroke:#ED1C24;stroke-miterlimit:10;}
</style>
<path class="st0" d="M112.87,55.07"/>
<path class="st0" d="M112.87,71.28"/>
<path class="st1" d="M502.22,341.6c-4.06,12.55-8.42,21.11-15.06,34.15c-9.8,19.26-19.98,39.28-38.92,60.59
	c-14.84,16.69-29.23,27.63-41.25,36.04c-2.38,1.67-4.68,3.23-6.86,4.73c0,0-4.85,3.31-12.52,7.98h-42.19l-7.27-25.86l-49.55-176.21
	L229.3,473.76v0.01l-3.52,11.32h-60l-1.94-7.39v-0.01L83.41,170.01h66.49l50.06,191.5l58.12-186.99l1.42-4.52h62.44l0.86,3.01
	l45.62,162.24l19.74,70.17c15.44-15.3,57.26-62.03,59.35-131.39c1.54-50.71-18.95-87.19-23.14-94.38c-1.95-3.36-3.97-6.58-6.06-9.65
	c-23.9-35.5-55.5-53.49-73.26-61.59c-0.63-0.29-1.27-0.57-1.91-0.86c-14.16-6.27-28.95-10.77-42.61-13.73
	c-0.92-0.2-1.84-0.39-2.75-0.57c-0.4-0.08-0.8-0.16-1.19-0.23c-1.42-0.28-2.83-0.55-4.21-0.79c-0.53-0.11-1.1-0.2-1.67-0.29
	c-0.32-0.05-0.65-0.11-0.98-0.16H65.6v393.3H1.33V26.91h291.82c3.6,0.61,7,1.27,10.23,1.91c15.17,3.07,26.13,6.27,31.76,7.99
	c20.42,6.27,45.31,14.12,72.7,33.06c10.87,7.51,20.01,15.32,27.07,21.92c6.06,5.64,10.57,10.4,13.33,13.33
	c6.66,7.06,15.72,16.78,24.97,30.85c8.22,12.5,13.7,24.06,17.67,34.04c2.59,6.52,4.54,12.36,6.2,17.36
	c3.02,9.16,13.47,42.49,13.59,87.77C510.71,294.66,510.59,315.75,502.22,341.6z"/>
<path class="st0" d="M64.79,71.28"/>
<path class="st0" d="M64.79,119.82"/>
<path class="st0" d="M64.79,178.34"/>
<path class="st0" d="M224.63,67.05"/>
</svg>
